<?xml version="1.0" standalone="no"?>
<!DOCTYPE svg PUBLIC "-//W3C//DTD SVG 20010904//EN"
 "http://www.w3.org/TR/2001/REC-SVG-20010904/DTD/svg10.dtd">
<svg version="1.0" xmlns="http://www.w3.org/2000/svg"
 width="1024.000000pt" height="1024.000000pt" viewBox="0 0 1024.000000 1024.000000"
 preserveAspectRatio="xMidYMid meet">

<g transform="translate(0.000000,1024.000000) scale(0.100000,-0.100000)"
fill="#000000" stroke="none">
<path d="M4735 9585 c-800 -80 -1502 -333 -2100 -756 -549 -389 -1047 -964
-1340 -1549 -235 -468 -367 -921 -430 -1475 -28 -251 -24 -629 10 -910 63
-517 251 -1088 505 -1531 512 -895 1337 -1576 2330 -1922 458 -160 896 -232
1414 -232 415 0 679 32 1061 130 300 77 556 171 850 315 1035 506 1794 1363
2155 2435 206 610 262 1263 165 1920 -86 575 -328 1202 -656 1697 -572 863
-1460 1498 -2452 1752 -229 59 -537 111 -772 131 -163 13 -581 11 -740 -5z
m865 -249 c651 -84 1257 -306 1760 -645 577 -389 1028 -897 1336 -1506 116
-231 150 -310 227 -530 97 -279 164 -583 198 -905 18 -160 18 -641 1 -770 -46
-340 -96 -559 -191 -827 -210 -595 -531 -1103 -961 -1522 -583 -568 -1267
-930 -2079 -1101 -436 -91 -932 -104 -1370 -34 -779 124 -1449 438 -2076 973
-685 583 -1164 1456 -1294 2359 -61 416 -51 890 25 1287 76 395 175 688 353
1045 385 772 1028 1409 1811 1794 439 216 926 349 1450 396 150 13 665 4 810
-14z"/>
<path d="M4640 8865 c-1024 -348 -1563 -548 -1562 -580 0 -20 177 -75 792
-250 52 -15 102 -29 111 -32 13 -4 17 8 22 64 10 113 19 127 116 174 186 90
363 145 621 191 107 19 161 22 375 23 224 0 262 -2 360 -23 245 -52 464 -125
632 -211 44 -22 65 -63 93 -179 6 -28 16 -54 21 -57 8 -6 131 26 284 74 50 16
100 32 113 36 18 5 22 3 22 -18 0 -16 -11 -31 -37 -48 -76 -49 -101 -151 -57
-234 20 -39 20 -40 2 -88 -10 -27 -34 -112 -53 -190 -18 -78 -34 -140 -35
-137 -1 3 -7 41 -13 84 l-12 79 -365 -1 c-201 0 -407 -1 -457 -1 l-93 -1 0
-240 0 -240 56 0 c41 0 55 -3 51 -12 -5 -15 -205 -645 -318 -1002 -43 -137
-86 -284 -96 -327 -16 -70 -20 -79 -40 -79 l-23 0 0 185 0 185 -360 0 -360 0
0 -151 c0 -134 -2 -150 -16 -145 -9 3 -114 6 -235 6 l-219 0 0 685 0 685 235
0 235 0 0 -195 0 -195 358 2 357 3 3 300 3 300 -162 153 -161 152 -618 0
c-340 0 -625 3 -634 6 -10 4 -69 -45 -186 -156 l-170 -162 0 -896 -1 -897 178
-172 178 -173 589 0 589 0 91 61 c50 34 112 77 137 95 26 19 49 34 52 34 3 0
3 -51 0 -113 l-6 -114 119 -6 c66 -4 268 -5 449 -4 l330 2 5 270 5 270 198 0
197 0 0 -277 0 -278 445 0 445 0 0 244 c0 134 3 251 6 260 5 14 -5 16 -70 16
l-76 0 -13 33 c-29 71 -370 1127 -366 1131 3 3 25 7 50 9 25 2 50 6 55 9 5 2
42 15 82 29 83 27 112 49 112 84 0 18 7 26 26 31 29 7 29 13 1 114 -8 30 -43
163 -77 295 -34 132 -73 276 -88 320 l-27 80 28 54 c46 92 32 173 -37 221 -38
26 -43 34 -41 62 2 32 5 34 91 66 203 75 279 108 279 122 0 19 -22 29 -232
111 l-173 66 0 -205 0 -205 40 -37 c36 -33 40 -42 40 -85 0 -42 -4 -52 -35
-81 -87 -82 -214 -37 -215 76 0 42 30 96 59 105 20 6 21 13 21 239 l0 232 -77
26 c-43 14 -220 76 -393 138 -173 61 -486 169 -695 239 l-380 127 -475 -161z
m2174 -1191 c26 -101 84 -384 111 -540 27 -157 26 -164 -21 -164 -26 0 -28 7
-79 275 -50 262 -65 339 -71 344 -7 7 -5 -12 16 -146 27 -176 59 -428 62 -488
2 -46 0 -51 -24 -59 -48 -17 -54 -7 -67 126 -7 67 -15 200 -19 293 l-7 170 -6
-100 c-4 -55 -7 -182 -8 -281 -1 -195 -5 -209 -53 -202 -21 3 -23 9 -26 68 -2
36 2 135 8 220 6 85 13 196 15 245 5 107 4 104 -46 -260 -18 -126 -33 -231
-34 -233 -2 -2 -19 4 -39 12 -31 13 -36 20 -36 48 0 38 39 285 82 513 16 88
32 174 35 192 l5 32 87 3 c47 2 89 1 93 -2 3 -3 13 -32 22 -66z m-1928 -290
l124 -117 0 -228 0 -229 -230 0 -230 0 0 152 0 152 -37 38 -37 38 -285 0 -285
0 -38 -37 -38 -37 0 -712 0 -712 54 -46 54 -46 263 0 263 0 48 47 48 47 0 103
0 103 225 0 225 0 0 -189 0 -189 -91 -74 c-51 -40 -122 -97 -158 -125 l-66
-53 -518 0 -518 0 -154 143 -155 142 0 845 -1 845 133 127 133 127 573 1 574
0 124 -116z m1478 -145 c38 -196 41 -249 20 -325 -5 -19 4 -25 69 -53 42 -17
79 -31 84 -31 4 0 105 -291 223 -648 l216 -647 57 -3 57 -3 0 -159 0 -160
-330 0 -330 0 0 160 0 160 45 0 c25 0 45 3 45 6 0 3 -14 54 -32 115 l-31 109
-348 0 -348 0 -21 -72 c-11 -40 -27 -90 -34 -110 -16 -43 -10 -48 60 -48 l44
0 0 -155 0 -155 -330 0 -330 0 0 155 0 155 80 0 79 0 75 233 c41 127 105 329
141 447 37 118 89 283 116 365 49 153 151 488 163 538 l6 27 -90 0 -90 0 0
150 0 150 348 0 347 0 39 -201z"/>
<path d="M6001 6444 c-60 -187 -112 -349 -116 -361 l-6 -23 235 0 c130 0 236
2 236 5 0 2 -9 28 -19 57 -23 64 -116 358 -166 523 -20 66 -40 124 -45 129 -5
5 -57 -140 -119 -330z m168 -147 l50 -147 -98 0 -98 0 45 150 c25 83 47 149
48 147 2 -1 25 -69 53 -150z"/>
<path d="M4885 8374 c-112 -12 -271 -38 -365 -60 -114 -28 -337 -100 -411
-133 -53 -24 -42 11 -94 -286 -33 -186 -34 -176 15 -159 23 8 100 30 173 50
292 78 596 51 850 -78 l58 -29 62 25 c167 66 364 106 520 106 136 0 248 -18
403 -65 63 -19 120 -35 126 -35 6 0 8 10 5 23 -3 12 -24 114 -46 226 -23 112
-44 208 -47 212 -10 18 -230 94 -374 130 -238 60 -325 71 -595 74 -132 2 -258
1 -280 -1z"/>
<path d="M3657 4969 c-129 -13 -311 -45 -423 -75 -55 -15 -121 -31 -149 -38
-46 -10 -55 -18 -150 -131 -139 -166 -205 -226 -309 -282 -92 -50 -146 -100
-146 -134 0 -18 -6 -21 -47 -19 -27 2 -78 2 -114 1 -60 -1 -67 -3 -72 -23 -18
-67 49 -170 144 -223 l54 -30 1129 -3 1128 -2 43 -31 c23 -17 60 -35 81 -40
49 -11 454 -11 550 0 51 6 82 16 114 37 l44 29 1125 5 1126 5 43 23 c94 50
168 152 160 220 -4 33 -26 40 -135 41 l-82 1 -16 33 c-12 25 -41 49 -120 96
-110 65 -206 152 -358 323 -87 98 -101 105 -317 152 -259 57 -382 69 -700 70
-322 1 -429 -11 -620 -70 -178 -55 -378 -170 -479 -278 -19 -20 -39 -36 -44
-36 -5 0 -39 28 -75 61 -152 142 -349 235 -627 295 -109 24 -144 26 -395 29
-151 2 -315 -1 -363 -6z m658 -73 c123 -22 264 -61 346 -95 168 -70 325 -180
410 -286 l44 -56 18 23 c99 128 189 199 361 283 142 70 217 94 401 127 104 20
153 22 370 22 305 -1 526 -29 805 -105 l81 -21 84 -112 c45 -61 126 -158 179
-216 53 -58 96 -108 96 -112 0 -15 -205 -7 -497 19 -389 34 -898 39 -1083 10
-246 -39 -465 -104 -593 -177 l-56 -31 -19 43 c-41 93 -122 139 -180 103 -48
-31 -73 -59 -98 -107 -13 -27 -26 -48 -28 -48 -2 0 -45 22 -97 49 -155 81
-384 143 -650 176 -224 28 -694 13 -1154 -35 -110 -12 -325 -13 -325 -2 0 4
16 24 36 43 42 40 201 237 264 327 42 59 48 64 110 82 194 57 379 91 620 114
93 8 477 -4 555 -18z m-1645 -613 c-108 -3 -156 -7 -162 -16 -5 -7 -8 -8 -8
-1 0 22 16 24 169 22 l156 -2 -155 -3z m5003 0 c-29 -2 -77 -2 -105 0 -29 2
-6 3 52 3 58 0 81 -1 53 -3z m74 -25 c-3 -7 -5 -2 -5 12 0 14 2 19 5 13 2 -7
2 -19 0 -25z m-379 15 c-21 -2 -55 -2 -75 0 -21 2 -4 4 37 4 41 0 58 -2 38 -4z
m-3980 -10 c-43 -2 -113 -2 -155 0 -43 1 -8 3 77 3 85 0 120 -2 78 -3z m3705
0 c-56 -2 -151 -2 -210 0 -59 1 -13 3 102 3 116 0 164 -2 108 -3z m-3355 -10
c-27 -2 -69 -2 -95 0 -27 2 -5 3 47 3 52 0 74 -1 48 -3z m2790 0 c-21 -2 -55
-2 -75 0 -21 2 -4 4 37 4 41 0 58 -2 38 -4z m-2560 -10 c-21 -2 -55 -2 -75 0
-21 2 -4 4 37 4 41 0 58 -2 38 -4z m2319 0 c-20 -2 -52 -2 -70 0 -17 2 0 4 38
4 39 0 53 -2 32 -4z m-2139 -10 c-21 -2 -57 -2 -80 0 -24 2 -7 4 37 4 44 0 63
-2 43 -4z m1995 0 c-13 -2 -35 -2 -50 0 -16 2 -5 4 22 4 28 0 40 -2 28 -4z
m1597 -1 c0 -5 -7 -17 -15 -28 -14 -18 -14 -17 -4 9 12 27 19 34 19 19z
m-3487 -9 c-7 -2 -19 -2 -25 0 -7 3 -2 5 12 5 14 0 19 -2 13 -5z m1765 0 c-10
-2 -28 -2 -40 0 -13 2 -5 4 17 4 22 1 32 -1 23 -4z m-2501 -53 l968 -5 -971
-3 -971 -2 -11 25 c-16 36 -14 46 3 15 l13 -25 969 -5z m796 43 c-7 -2 -19 -2
-25 0 -7 3 -2 5 12 5 14 0 19 -2 13 -5z m1610 0 c-7 -2 -21 -2 -30 0 -10 3 -4
5 12 5 17 0 24 -2 18 -5z m-1550 -10 c-7 -2 -19 -2 -25 0 -7 3 -2 5 12 5 14 0
19 -2 13 -5z m1475 0 c-10 -2 -26 -2 -35 0 -10 3 -2 5 17 5 19 0 27 -2 18 -5z
m-1410 -10 c-10 -2 -26 -2 -35 0 -10 3 -2 5 17 5 19 0 27 -2 18 -5z m1345 0
c-7 -2 -21 -2 -30 0 -10 3 -4 5 12 5 17 0 24 -2 18 -5z m-1290 -10 c-7 -2 -19
-2 -25 0 -7 3 -2 5 12 5 14 0 19 -2 13 -5z m1230 0 c-7 -2 -19 -2 -25 0 -7 3
-2 5 12 5 14 0 19 -2 13 -5z m-1133 -13 c23 -7 22 -8 -10 -9 -19 0 -42 4 -50
9 -12 8 -10 10 10 9 14 -1 36 -5 50 -9z m1070 0 c-8 -5 -31 -9 -50 -9 l-35 2
35 7 c19 4 42 8 50 9 13 1 13 0 0 -9z m2050 0 c0 -7 -344 -9 -1017 -8 l-1018
3 1015 5 c558 3 1016 6 1018 8 1 1 2 -2 2 -8z m-2597 -97 c-7 -2 -21 -2 -30 0
-10 3 -4 5 12 5 17 0 24 -2 18 -5z m-246 -17 c0 -11 -5 -13 -19 -5 -10 5 -18
12 -18 14 0 3 8 5 18 5 10 0 19 -7 19 -14z m410 8 c-3 -3 -12 -4 -19 -1 -8 3
-5 6 6 6 11 1 17 -2 13 -5z"/>
<path d="M3774 4650 c-109 -8 -432 -52 -477 -66 -51 -16 8 -12 174 12 247 35
599 44 767 20 227 -34 445 -106 616 -204 123 -70 136 -75 71 -27 -160 117
-420 216 -660 250 -133 19 -342 25 -491 15z"/>
<path d="M6130 4654 c-334 -31 -613 -121 -827 -266 -113 -75 -92 -76 26 0 131
84 341 162 556 209 125 26 141 27 420 28 249 0 315 -3 468 -24 178 -23 249
-24 120 -1 -238 42 -610 68 -763 54z"/>
<path d="M3730 4533 c-231 -15 -827 -99 -734 -102 17 -1 79 6 138 14 331 47
861 69 1078 46 225 -25 432 -83 620 -176 62 -31 102 -47 88 -36 -38 31 -216
117 -300 145 -278 93 -584 130 -890 109z"/>
<path d="M6045 4524 c-245 -28 -449 -85 -641 -180 -63 -31 -117 -61 -120 -65
-7 -12 30 3 115 46 169 85 388 144 611 164 330 30 579 20 1143 -48 81 -9 144
-14 140 -11 -8 7 -155 32 -388 66 -284 41 -644 53 -860 28z"/>
<path d="M2440 3813 c-21 -8 -91 -57 -117 -82 -22 -21 -23 -27 -23 -239 0
-121 5 -234 11 -255 13 -48 62 -104 107 -122 25 -11 75 -15 179 -15 161 0 174
4 236 68 37 38 38 40 35 108 l-3 69 -75 0 -75 0 -6 -48 c-3 -27 -12 -53 -20
-58 -7 -5 -49 -9 -91 -9 -119 0 -121 4 -116 249 4 207 1 202 116 204 45 0 85
-2 89 -7 4 -4 10 -33 13 -64 l5 -57 80 0 80 0 3 40 c9 102 -31 180 -105 211
-33 14 -290 19 -323 7z"/>
<path d="M3100 3801 c-5 -11 -10 -36 -10 -55 0 -29 4 -36 20 -36 31 0 26 -50
-19 -203 -69 -236 -83 -271 -113 -285 -26 -12 -28 -18 -28 -68 l0 -54 130 0
130 0 0 48 c0 26 -4 53 -9 60 -4 7 -6 24 -3 38 4 24 6 24 107 24 96 0 104 -2
110 -21 4 -13 1 -27 -9 -38 -10 -11 -16 -36 -16 -64 l0 -47 131 0 130 0 -4 56
c-3 47 -8 58 -28 68 -20 10 -36 48 -96 226 -40 118 -72 218 -73 222 0 4 9 9
19 13 26 8 34 37 26 91 l-6 44 -189 0 c-177 0 -190 -1 -200 -19z m250 -313
l28 -88 -80 0 c-71 0 -79 2 -74 18 2 9 14 51 26 92 12 41 27 88 33 103 l12 28
14 -33 c7 -18 26 -72 41 -120z"/>
<path d="M3747 3813 c-4 -3 -7 -26 -7 -51 0 -33 5 -48 23 -62 22 -18 22 -22
22 -242 0 -222 0 -223 -22 -233 -20 -8 -23 -17 -23 -67 l0 -58 135 0 135 0 0
60 c0 54 -2 60 -20 60 -11 0 -23 6 -26 13 -2 7 -3 85 -2 172 l3 160 49 -120
c81 -196 113 -255 139 -255 43 0 41 -3 127 210 54 136 62 152 69 141 3 -5 4
-78 1 -162 l-5 -153 -25 -6 c-23 -5 -25 -11 -28 -63 l-3 -57 146 0 145 0 0 55
c0 50 -2 56 -25 65 l-25 10 0 224 c0 221 0 225 22 240 18 13 23 27 25 71 l2
55 -133 0 -133 0 -72 -185 c-40 -102 -76 -185 -80 -185 -5 0 -43 83 -86 185
l-79 185 -121 0 c-67 0 -125 -3 -128 -7z"/>
<path d="M4710 3766 c0 -48 2 -54 24 -60 21 -5 24 -13 30 -82 9 -116 7 -349
-4 -378 -6 -16 -17 -26 -30 -26 -18 0 -20 -6 -20 -60 l0 -60 145 0 145 0 0 55
c0 50 -2 56 -25 65 l-25 10 0 229 c0 206 2 230 17 233 13 2 17 16 19 66 l2 62
-139 0 -139 0 0 -54z"/>
<path d="M5201 3799 c-71 -36 -82 -64 -79 -200 3 -100 6 -120 23 -139 37 -42
102 -63 215 -69 l105 -6 0 -75 0 -75 -60 -6 c-86 -8 -105 1 -105 51 l0 40 -90
0 -90 0 0 -59 c0 -50 4 -65 26 -91 51 -60 87 -70 247 -70 l144 0 42 31 c60 43
74 83 69 195 -4 106 -16 130 -82 169 -36 21 -64 28 -146 34 -55 4 -105 12
-110 17 -5 5 -12 32 -15 59 -10 73 7 86 100 77 l70 -7 9 -42 9 -42 71 2 71 2
3 55 c3 68 -19 116 -68 145 -30 17 -56 20 -175 23 -128 3 -144 1 -184 -19z"/>
<path d="M5770 3770 c0 -44 3 -52 24 -59 13 -5 26 -20 29 -33 4 -13 7 -119 7
-236 0 -202 -1 -214 -19 -219 -17 -4 -19 -14 -18 -64 l1 -59 273 0 274 0 -3
92 c-3 92 -3 93 -28 92 -66 -2 -80 -5 -80 -17 0 -8 -8 -22 -19 -31 -15 -14
-35 -16 -112 -14 l-94 3 -3 85 -3 85 101 -2 100 -2 0 64 0 65 -100 0 -99 0 2
83 2 82 85 0 c91 0 110 -6 110 -36 0 -17 8 -19 60 -19 l60 0 0 95 0 95 -275 0
-275 0 0 -50z"/>
<path d="M6430 3725 l0 -95 54 0 c52 0 55 1 58 28 3 25 6 27 48 27 l45 0 3
-227 2 -228 -24 -6 c-22 -5 -25 -12 -28 -65 l-3 -59 138 0 137 0 0 59 c0 55
-2 59 -25 65 l-25 6 2 227 3 226 38 0 c20 -1 41 -2 46 -2 5 -1 12 -12 15 -26
6 -23 10 -25 71 -25 l65 0 0 95 0 95 -310 0 -310 0 0 -95z"/>
<path d="M7197 3813 c-4 -3 -7 -26 -7 -50 0 -37 4 -45 24 -52 13 -5 26 -16 29
-25 6 -15 -116 -444 -130 -457 -5 -4 -17 -9 -28 -11 -17 -3 -20 -12 -23 -61
l-3 -57 131 0 130 0 0 55 c0 50 -2 56 -25 65 -26 10 -29 17 -19 44 5 13 26 16
125 16 110 0 119 -1 130 -21 9 -17 7 -25 -9 -42 -11 -13 -22 -42 -25 -69 l-5
-48 150 0 149 0 -3 58 c-3 54 -5 57 -30 60 -14 2 -31 9 -37 16 -6 6 -42 108
-81 226 -70 213 -70 215 -50 230 19 14 19 20 10 69 -5 30 -10 55 -10 57 0 7
-387 4 -393 -3z m252 -283 c16 -52 32 -103 36 -112 6 -16 -1 -18 -74 -18 -50
0 -81 4 -81 11 0 18 23 104 30 114 4 6 10 22 14 37 13 54 27 81 36 72 5 -5 23
-52 39 -104z"/>
<path d="M5096 2359 c-55 -130 -52 -126 -93 -132 -21 -4 -64 -7 -95 -7 -31 0
-60 -4 -63 -10 -3 -5 -2 -10 3 -10 4 0 33 -18 63 -41 30 -22 60 -44 68 -49 12
-7 11 -19 -7 -81 -34 -113 -32 -115 36 -77 31 17 65 38 74 46 15 12 26 8 102
-39 48 -29 89 -50 92 -47 3 4 -6 43 -20 88 -14 44 -26 87 -26 94 0 7 31 34 70
60 38 26 71 50 74 54 2 4 -30 8 -72 10 -106 4 -121 14 -152 94 -15 37 -29 71
-33 74 -4 4 -13 -8 -21 -27z"/>
<path d="M4382 2286 l-23 -65 -72 -3 -72 -3 55 -39 c30 -22 57 -41 59 -43 2
-2 -3 -31 -13 -64 -9 -34 -15 -63 -13 -66 3 -2 27 10 55 28 l51 31 54 -31 c30
-17 57 -31 60 -31 3 0 -3 25 -14 57 -10 31 -19 60 -19 65 0 4 23 25 51 45 44
32 49 38 33 44 -11 4 -40 8 -65 8 l-45 1 -30 66 -29 66 -23 -66z"/>
<path d="M5790 2316 c0 -9 -7 -34 -16 -56 -16 -39 -17 -40 -68 -40 -78 0 -83
-10 -26 -55 28 -22 50 -44 50 -50 0 -5 -7 -32 -15 -59 -8 -27 -15 -53 -15 -58
0 -4 25 8 55 28 l55 37 60 -36 c64 -38 68 -37 46 9 -8 16 -17 43 -21 61 -6 29
-3 33 51 69 65 44 59 52 -38 53 l-57 1 -19 52 c-19 51 -42 75 -42 44z"/>
</g>
</svg>
